<?xml version="1.0" encoding="UTF-8" standalone="no"?>
<!-- Created with Inkscape (http://www.inkscape.org/) -->

<svg
   xmlns:dc="http://purl.org/dc/elements/1.1/"
   xmlns:cc="http://creativecommons.org/ns#"
   xmlns:rdf="http://www.w3.org/1999/02/22-rdf-syntax-ns#"
   xmlns:svg="http://www.w3.org/2000/svg"
   xmlns="http://www.w3.org/2000/svg"
   xmlns:sodipodi="http://sodipodi.sourceforge.net/DTD/sodipodi-0.dtd"
   xmlns:inkscape="http://www.inkscape.org/namespaces/inkscape"
   width="8.0024042mm"
   height="8.0024042mm"
   viewBox="0 0 28.354976 28.354975"
   id="svg5932"
   version="1.1"
   inkscape:version="0.91 r13725"
   sodipodi:docname="failed.svg">
  <defs
     id="defs5934" />
  <sodipodi:namedview
     id="base"
     pagecolor="#ffffff"
     bordercolor="#666666"
     borderopacity="1.0"
     inkscape:pageopacity="0.0"
     inkscape:pageshadow="2"
     inkscape:zoom="1.0349609"
     inkscape:cx="41.338271"
     inkscape:cy="-79.372234"
     inkscape:document-units="px"
     inkscape:current-layer="layer1"
     showgrid="false"
     fit-margin-top="0"
     fit-margin-left="0"
     fit-margin-right="0"
     fit-margin-bottom="0"
     inkscape:window-width="1535"
     inkscape:window-height="876"
     inkscape:window-x="65"
     inkscape:window-y="24"
     inkscape:window-maximized="1" />
  <metadata
     id="metadata5937">
    <rdf:RDF>
      <cc:Work
         rdf:about="">
        <dc:format>image/svg+xml</dc:format>
        <dc:type
           rdf:resource="http://purl.org/dc/dcmitype/StillImage" />
        <dc:title></dc:title>
      </cc:Work>
    </rdf:RDF>
  </metadata>
  <g
     inkscape:label="Layer 1"
     inkscape:groupmode="layer"
     id="layer1"
     transform="translate(-165.53944,-424.635)">
    <g
       id="g4163"
       transform="matrix(0.50915866,-0.07714525,0.07714525,0.50915866,133.49111,399.43972)">
      <rect
         ry="7.7441425"
         rx="7.7441425"
         y="63.919102"
         x="52.17588"
         height="50.243443"
         width="50.243443"
         id="rect4165"
         style="color:#000000;clip-rule:nonzero;display:inline;overflow:visible;visibility:visible;opacity:1;isolation:auto;mix-blend-mode:normal;color-interpolation:sRGB;color-interpolation-filters:linearRGB;solid-color:#000000;solid-opacity:1;fill:#661200;fill-opacity:1;fill-rule:evenodd;stroke:none;stroke-width:1px;stroke-linecap:butt;stroke-linejoin:miter;stroke-miterlimit:4;stroke-dasharray:none;stroke-dashoffset:0;stroke-opacity:1;color-rendering:auto;image-rendering:auto;shape-rendering:auto;text-rendering:auto;enable-background:accumulate" />
      <g
         transform="matrix(0.99338659,0.02741921,0.01241809,1.0070002,0,0)"
         style="font-style:normal;font-variant:normal;font-weight:normal;font-stretch:normal;font-size:36.19097519px;line-height:125%;font-family:Checkbook;-inkscape-font-specification:Checkbook;letter-spacing:0px;word-spacing:0px;fill:#ffffff;fill-opacity:1;stroke:none;stroke-width:1px;stroke-linecap:butt;stroke-linejoin:miter;stroke-opacity:1"
         id="text4167">
        <path
           d="m 68.232905,90.109136 q 0.362263,-0.468292 2.756735,-2.31495 1.731794,-1.334189 1.731794,-2.456321 0,-1.236996 -1.192817,-2.173579 l -2.712556,-2.102894 q -0.618498,-0.538977 -0.945419,-1.192818 -0.176714,-0.468291 -0.176714,-1.007268 0,-0.441784 0,-0.689184 l 0,-5.46929 q 0,-0.57432 0.432949,-1.051447 0.397606,-0.432949 1.051447,-0.432949 0.609662,0 1.007268,0.432949 0.362263,0.477127 0.362263,1.122132 l 0,4.603393 q 0,0.326921 0.04418,0.609663 0,0.291578 0.106028,0.618498 0.247399,0.57432 0.759869,0.971926 l 3.366397,2.571185 q 0.689184,0.477127 1.484395,0.477127 0.75987,0 1.449053,-0.477127 l 3.145505,-2.350293 q 0.141371,-0.07069 0.397606,-0.318085 0.256235,-0.256235 0.362263,-0.441784 0.397606,-0.653841 0.397606,-1.66111 l 0,-4.674078 q 0,-0.57432 0.432949,-1.007268 0.397606,-0.397606 0.980761,-0.397606 0.538977,0 0.971925,0.362263 0.432949,0.353427 0.432949,0.865897 l 0,6.008268 q 0,0.936582 -0.247399,1.55508 -0.114864,0.326921 -0.51247,0.724527 -0.141371,0.141371 -0.432949,0.362263 L 81.265544,83.0936 q -0.689184,0.538977 -1.122132,1.157475 -0.468292,0.618498 -0.468292,1.08679 0,0.574319 0.2474,1.086789 0.220892,0.503634 1.086789,1.157475 l 2.641871,2.094058 q 0.618498,0.397606 0.865897,0.945419 0.220892,0.574319 0.220892,1.334189 l 0,8.111165 q 0,0.68918 -0.291578,1.08679 -0.282742,0.43294 -1.007268,0.43294 -0.724526,0 -1.122132,-0.3976 -0.441785,-0.39761 -0.441785,-1.05145 l 0,-6.405872 q 0,-0.432949 0,-0.618498 0,-0.212057 0,-0.432949 -0.07069,-0.291578 -0.106028,-0.538977 -0.03534,-0.256235 -0.256235,-0.583155 -0.212056,-0.326921 -0.503634,-0.503635 l -2.350293,-1.811315 q -0.362263,-0.291578 -0.865897,-0.57432 -0.759869,-0.477127 -1.599259,-0.477127 -0.57432,0 -0.901241,0.150206 -0.362263,0.141371 -1.016104,0.57432 l -2.783241,2.032208 q -0.432949,0.282742 -0.759869,0.830555 -0.106028,0.256235 -0.18555,0.609662 -0.07068,0.362263 -0.07068,1.016104 l 0,6.511902 q 0,0.618501 -0.397606,1.095621 -0.397606,0.4683 -1.051447,0.4683 -0.609662,0 -1.007268,-0.51247 Q 67.5879,100.4999 67.5879,99.846063 l 0,-7.307113 q 0,-0.830555 0.141371,-1.41371 0.106028,-0.538977 0.503634,-1.016104 z"
           style="text-align:center;text-anchor:middle"
           id="path6512" />
      </g>
    </g>
  </g>
</svg>
