<?xml version="1.0" encoding="UTF-8" standalone="no"?>
<!-- Created with Inkscape (http://www.inkscape.org/) -->

<svg
   xmlns:dc="http://purl.org/dc/elements/1.1/"
   xmlns:cc="http://creativecommons.org/ns#"
   xmlns:rdf="http://www.w3.org/1999/02/22-rdf-syntax-ns#"
   xmlns:svg="http://www.w3.org/2000/svg"
   xmlns="http://www.w3.org/2000/svg"
   xmlns:sodipodi="http://sodipodi.sourceforge.net/DTD/sodipodi-0.dtd"
   xmlns:inkscape="http://www.inkscape.org/namespaces/inkscape"
   width="8.0024042mm"
   height="8.0024042mm"
   viewBox="0 0 28.354976 28.354975"
   id="svg4204"
   version="1.1"
   inkscape:version="0.91 r13725"
   sodipodi:docname="unsolved.svg">
  <defs
     id="defs4206" />
  <sodipodi:namedview
     id="base"
     pagecolor="#ffffff"
     bordercolor="#666666"
     borderopacity="1.0"
     inkscape:pageopacity="0.0"
     inkscape:pageshadow="2"
     inkscape:zoom="3.0604117"
     inkscape:cx="-11.644279"
     inkscape:cy="45.284197"
     inkscape:document-units="px"
     inkscape:current-layer="layer1"
     showgrid="false"
     fit-margin-top="0"
     fit-margin-left="0"
     fit-margin-right="0"
     fit-margin-bottom="0"
     inkscape:window-width="1535"
     inkscape:window-height="876"
     inkscape:window-x="65"
     inkscape:window-y="24"
     inkscape:window-maximized="1" />
  <metadata
     id="metadata4209">
    <rdf:RDF>
      <cc:Work
         rdf:about="">
        <dc:format>image/svg+xml</dc:format>
        <dc:type
           rdf:resource="http://purl.org/dc/dcmitype/StillImage" />
        <dc:title />
      </cc:Work>
    </rdf:RDF>
  </metadata>
  <g
     inkscape:label="Layer 1"
     inkscape:groupmode="layer"
     id="layer1"
     transform="translate(-117.22844,-300.95883)">
    <g
       id="g4142"
       transform="matrix(0.50915866,-0.07714525,0.07714525,0.50915866,85.180106,275.76355)">
      <rect
         ry="7.7441425"
         rx="7.7441425"
         y="63.919102"
         x="52.17588"
         height="50.243443"
         width="50.243443"
         id="rect4136"
         style="color:#000000;clip-rule:nonzero;display:inline;overflow:visible;visibility:visible;opacity:1;isolation:auto;mix-blend-mode:normal;color-interpolation:sRGB;color-interpolation-filters:linearRGB;solid-color:#000000;solid-opacity:1;fill:#005380;fill-opacity:1;fill-rule:evenodd;stroke:none;stroke-width:1px;stroke-linecap:butt;stroke-linejoin:miter;stroke-miterlimit:4;stroke-dasharray:none;stroke-dashoffset:0;stroke-opacity:1;color-rendering:auto;image-rendering:auto;shape-rendering:auto;text-rendering:auto;enable-background:accumulate" />
      <g
         style="font-style:normal;font-variant:normal;font-weight:normal;font-stretch:normal;font-size:40px;line-height:125%;font-family:Checkbook;-inkscape-font-specification:Checkbook;letter-spacing:0px;word-spacing:0px;fill:#ffffff;fill-opacity:1;stroke:none;stroke-width:1px;stroke-linecap:butt;stroke-linejoin:miter;stroke-opacity:1"
         id="text4138">
        <path
           d="m 68.47068,73.079262 q 0.400391,-0.283203 0.800781,-0.400391 0.361329,-0.08789 0.917969,-0.08789 0.439453,0 0.683594,0 l 12.753906,0 q 0.439453,0 0.917969,0 0.439453,0.08789 0.839844,0.40039 0.361328,0.322266 0.488281,0.683594 0.07813,0.400391 0.07813,1.123047 l 0,10.195312 q 0,0.361328 0,0.517578 0,0.439454 -0.03906,0.644532 -0.03906,0.283203 -0.24414,0.634765 -0.234375,0.361328 -0.634766,0.605469 -0.40039,0.244141 -0.488281,0.283203 l -4.755859,2.314453 q -0.517579,0.244141 -0.722657,0.566407 -0.361328,0.517578 -0.361328,0.957031 l 0,3.154297 q 0,0.722656 -0.55664,1.289062 -0.556641,0.556641 -1.31836,0.556641 -0.800781,0 -1.357422,-0.517578 -0.566406,-0.527344 -0.566406,-1.367188 l 0,-5.3125 q 0,-0.800781 0.244141,-1.162109 0.195312,-0.322266 0.595703,-0.478516 l 4.960937,-2.402344 q 0.283203,-0.117187 0.644532,-0.3125 0.361328,-0.205078 0.478515,-0.488281 0.07813,-0.283203 0.07813,-1.123047 l 0,-5.322265 q 0,-0.751953 -0.634765,-1.152344 -0.322266,-0.283203 -0.966797,-0.283203 -0.234375,0 -0.361328,0 l -5.839844,0 q -0.517578,0 -0.957031,0 -0.478516,0.03906 -0.878907,0.40039 -0.517578,0.517579 -0.517578,1.16211 l 0,3.193359 q 0,1.044922 -0.566406,1.845703 -0.556641,0.800782 -1.474609,0.800782 -0.966797,0 -1.484375,-0.761719 -0.556641,-0.761719 -0.556641,-1.835938 l 0,-6.484375 q 0,-1.162109 0.800781,-1.835937 z m 5.234375,25.439453 q 0.488281,-0.400391 0.927735,-0.400391 l 3.955078,0 q 0.517578,0 0.839843,0.117188 0.205079,0.07813 0.439454,0.283203 0.517578,0.400391 0.517578,1.240234 l 0,4.277341 q 0,0.80078 -0.439453,1.16211 -0.478516,0.40039 -1.396485,0.40039 l -3.4375,0 q -1.083984,0 -1.523437,-0.5664 -0.234375,-0.19532 -0.283203,-0.47852 -0.07813,-0.2832 -0.07813,-0.80078 l 0,-3.994141 q 0,-0.800781 0.478515,-1.240234 z"
           style="text-align:center;text-anchor:middle"
           id="path6515" />
      </g>
    </g>
  </g>
</svg>
